<svg width="100" height="100" viewBox="0 0 100 100" fill="none" xmlns="http://www.w3.org/2000/svg">
<path d="M50 100C77.6142 100 100 77.6142 100 50C100 22.3858 77.6142 0 50 0C22.3858 0 0 22.3858 0 50C0 77.6142 22.3858 100 50 100Z" fill="#F7E5DA"/>
<path d="M78.6173 33.074C77.6355 31.6824 76.2944 30.5135 74.7402 29.5412L74.5114 29.3951C66.6177 24.4853 56.7067 23.9188 56.7067 23.9188C56.7067 23.9188 45.2772 22.7341 34.6154 24.0852C38.0072 23.7693 48.678 23.8267 59.1569 35.0028C71.5291 48.1988 58.9371 56.1288 50.5435 54.7047C61.2076 56.7841 73.1001 55.9445 78.5336 45.0594C81.0027 40.1137 80.6981 36.3483 78.8907 33.4899C81.8016 36.6192 82.8303 41.0276 79.7721 47.1838C70.0028 66.843 40.1036 55.0396 31.6219 50.4716C23.1402 45.9036 13.9533 35.8346 21.2858 29.4411C22.203 28.6397 23.4425 27.972 24.9075 27.4157C21.8024 28.5105 19.1905 30.0144 17.5214 32.068C9.25721 42.2303 19.6122 56.9415 29.1707 64.2004C38.7291 71.4594 72.4262 90.2215 83.435 58.9737C87.9961 46.0283 84.428 38.0219 78.6173 33.074Z" fill="#FF4B00"/>
<path d="M29.2365 46.7252C28.9263 46.2543 27.9579 44.2884 30.842 41.2198C34.0854 37.7668 42.2079 33.9575 51.9604 34.9185C51.9604 34.9185 55.9614 35.195 57.76 37.4543C57.4079 36.9825 57.0417 36.5214 56.6621 36.0718C47.3648 25.0451 37.8956 24.9889 34.8876 25.2991C34.5602 25.3451 34.2333 25.3946 33.9069 25.4475C31.4266 25.8465 29.02 26.4276 26.8845 27.2605C25.6305 27.7888 24.5694 28.4217 23.7839 29.1792C18.4887 34.2879 23.2562 41.8762 29.2354 46.723L29.2365 46.7252Z" fill="#FF4B00"/>
</svg>
