<svg width="377" height="100" viewBox="0 0 377 100" fill="none" xmlns="http://www.w3.org/2000/svg">
<path d="M130.224 67L118.032 52.072V67H111.312V33.496H118.032V48.52L130.224 33.496H138.336L124.512 50.104L138.72 67H130.224ZM266.063 38.92V47.32H277.343V52.648H266.063V61.528H278.783V67H259.343V33.448H278.783V38.92H266.063Z" fill="#FF4B00"/>
<path d="M157.876 40.024C161.044 40.024 163.604 41.032 165.556 43.048C167.508 45.032 168.484 47.816 168.484 51.4V67H161.764V52.312C161.764 50.2 161.236 48.584 160.18 47.464C159.124 46.312 157.684 45.736 155.86 45.736C154.004 45.736 152.532 46.312 151.444 47.464C150.388 48.584 149.86 50.2 149.86 52.312V67H143.14V40.408H149.86V43.72C150.756 42.568 151.892 41.672 153.268 41.032C154.676 40.36 156.212 40.024 157.876 40.024ZM186.683 67.432C184.123 67.432 181.819 66.872 179.771 65.752C177.723 64.6 176.107 62.984 174.923 60.904C173.771 58.824 173.195 56.424 173.195 53.704C173.195 50.984 173.787 48.584 174.971 46.504C176.187 44.424 177.835 42.824 179.915 41.704C181.995 40.552 184.315 39.976 186.875 39.976C189.435 39.976 191.755 40.552 193.835 41.704C195.915 42.824 197.547 44.424 198.731 46.504C199.947 48.584 200.555 50.984 200.555 53.704C200.555 56.424 199.931 58.824 198.682 60.904C197.467 62.984 195.803 64.6 193.691 65.752C191.611 66.872 189.275 67.432 186.683 67.432ZM186.683 61.576C187.899 61.576 189.035 61.288 190.091 60.712C191.179 60.104 192.043 59.208 192.683 58.024C193.323 56.84 193.643 55.4 193.643 53.704C193.643 51.176 192.971 49.24 191.627 47.896C190.315 46.52 188.699 45.832 186.779 45.832C184.859 45.832 183.243 46.52 181.931 47.896C180.651 49.24 180.011 51.176 180.011 53.704C180.011 56.232 180.635 58.184 181.883 59.56C183.163 60.904 184.763 61.576 186.683 61.576ZM242.348 40.408L234.572 67H227.324L222.476 48.424L217.628 67H210.332L202.508 40.408H209.324L214.028 60.664L219.116 40.408H226.22L231.212 60.616L235.916 40.408H242.348ZM252.704 31.48V67H245.984V31.48H252.704ZM283.162 53.608C283.162 50.92 283.69 48.536 284.746 46.456C285.834 44.376 287.306 42.776 289.162 41.656C291.018 40.536 293.082 39.976 295.354 39.976C297.082 39.976 298.73 40.36 300.298 41.128C301.866 41.864 303.114 42.856 304.042 44.104V31.48H310.858V67H304.042V63.064C303.21 64.376 302.042 65.432 300.538 66.232C299.034 67.032 297.29 67.432 295.306 67.432C293.066 67.432 291.018 66.856 289.162 65.704C287.306 64.552 285.834 62.936 284.746 60.856C283.69 58.744 283.162 56.328 283.162 53.608ZM304.09 53.704C304.09 52.072 303.77 50.68 303.13 49.528C302.49 48.344 301.626 47.448 300.538 46.84C299.45 46.2 298.282 45.88 297.034 45.88C295.786 45.88 294.634 46.184 293.578 46.792C292.522 47.4 291.658 48.296 290.986 49.48C290.346 50.632 290.026 52.008 290.026 53.608C290.026 55.208 290.346 56.616 290.986 57.832C291.658 59.016 292.522 59.928 293.578 60.568C294.666 61.208 295.818 61.528 297.034 61.528C298.282 61.528 299.45 61.224 300.538 60.616C301.626 59.976 302.49 59.08 303.13 57.928C303.77 56.744 304.09 55.336 304.09 53.704ZM327.837 39.976C329.821 39.976 331.565 40.376 333.069 41.176C334.573 41.944 335.757 42.952 336.621 44.2V40.408H343.389V67.192C343.389 69.656 342.893 71.848 341.901 73.768C340.909 75.72 339.421 77.256 337.437 78.376C335.453 79.528 333.053 80.104 330.237 80.104C326.461 80.104 323.357 79.224 320.925 77.464C318.525 75.704 317.165 73.304 316.845 70.264H323.517C323.869 71.48 324.621 72.44 325.773 73.144C326.957 73.88 328.381 74.248 330.045 74.248C331.997 74.248 333.581 73.656 334.797 72.472C336.013 71.32 336.621 69.56 336.621 67.192V63.064C335.757 64.312 334.557 65.352 333.021 66.184C331.517 67.016 329.789 67.432 327.837 67.432C325.597 67.432 323.549 66.856 321.693 65.704C319.837 64.552 318.365 62.936 317.277 60.856C316.221 58.744 315.693 56.328 315.693 53.608C315.693 50.92 316.221 48.536 317.277 46.456C318.365 44.376 319.821 42.776 321.645 41.656C323.501 40.536 325.565 39.976 327.837 39.976ZM336.621 53.704C336.621 52.072 336.301 50.68 335.661 49.528C335.021 48.344 334.157 47.448 333.069 46.84C331.981 46.2 330.813 45.88 329.565 45.88C328.317 45.88 327.165 46.184 326.109 46.792C325.053 47.4 324.189 48.296 323.517 49.48C322.877 50.632 322.557 52.008 322.557 53.608C322.557 55.208 322.877 56.616 323.517 57.832C324.189 59.016 325.053 59.928 326.109 60.568C327.197 61.208 328.349 61.528 329.565 61.528C330.813 61.528 331.981 61.224 333.069 60.616C334.157 59.976 335.021 59.08 335.661 57.928C336.301 56.744 336.621 55.336 336.621 53.704ZM374.673 53.128C374.673 54.088 374.609 54.952 374.481 55.72H355.041C355.201 57.64 355.873 59.144 357.057 60.232C358.241 61.32 359.697 61.864 361.425 61.864C363.921 61.864 365.697 60.792 366.753 58.648H374.001C373.233 61.208 371.761 63.32 369.585 64.984C367.409 66.616 364.737 67.432 361.569 67.432C359.009 67.432 356.705 66.872 354.657 65.752C352.641 64.6 351.057 62.984 349.905 60.904C348.785 58.824 348.225 56.424 348.225 53.704C348.225 50.952 348.785 48.536 349.905 46.456C351.025 44.376 352.593 42.776 354.609 41.656C356.625 40.536 358.945 39.976 361.569 39.976C364.097 39.976 366.353 40.52 368.337 41.608C370.353 42.696 371.905 44.248 372.993 46.264C374.113 48.248 374.673 50.536 374.673 53.128ZM367.713 51.208C367.681 49.48 367.057 48.104 365.841 47.08C364.625 46.024 363.137 45.496 361.377 45.496C359.713 45.496 358.305 46.008 357.153 47.032C356.033 48.024 355.345 49.416 355.089 51.208H367.713Z" fill="#F7E5DA"/>
<path d="M50 100C77.6142 100 100 77.6142 100 50C100 22.3858 77.6142 0 50 0C22.3858 0 0 22.3858 0 50C0 77.6142 22.3858 100 50 100Z" fill="#F7E5DA"/>
<path d="M78.6173 33.074C77.6355 31.6824 76.2944 30.5135 74.7402 29.5412L74.5114 29.3951C66.6177 24.4853 56.7067 23.9188 56.7067 23.9188C56.7067 23.9188 45.2772 22.7341 34.6154 24.0852C38.0072 23.7693 48.678 23.8267 59.1569 35.0028C71.5291 48.1988 58.9371 56.1288 50.5435 54.7047C61.2076 56.7841 73.1001 55.9445 78.5336 45.0594C81.0027 40.1137 80.6981 36.3483 78.8907 33.4899C81.8016 36.6192 82.8303 41.0276 79.7721 47.1838C70.0028 66.843 40.1036 55.0396 31.6219 50.4716C23.1402 45.9036 13.9533 35.8346 21.2858 29.4411C22.203 28.6397 23.4425 27.972 24.9075 27.4157C21.8024 28.5105 19.1905 30.0144 17.5214 32.068C9.25721 42.2303 19.6122 56.9415 29.1707 64.2004C38.7291 71.4593 72.4262 90.2215 83.435 58.9737C87.9961 46.0283 84.428 38.0219 78.6173 33.074Z" fill="#FF4B00"/>
<path d="M29.2365 46.7252C28.9263 46.2543 27.9579 44.2884 30.842 41.2198C34.0854 37.7668 42.2079 33.9575 51.9604 34.9185C51.9604 34.9185 55.9614 35.195 57.76 37.4543C57.4079 36.9825 57.0417 36.5214 56.6621 36.0718C47.3648 25.0451 37.8956 24.9889 34.8876 25.2991C34.5602 25.3451 34.2333 25.3946 33.9069 25.4475C31.4266 25.8465 29.02 26.4276 26.8845 27.2605C25.6305 27.7888 24.5694 28.4217 23.7839 29.1792C18.4887 34.2879 23.2562 41.8762 29.2354 46.723L29.2365 46.7252Z" fill="#FF4B00"/>
</svg>
